<mxfile host="app.diagrams.net" modified="2021-11-21T19:14:16.983Z" agent="5.0 (Windows NT 10.0; Win64; x64) AppleWebKit/537.36 (KHTML, like Gecko) Chrome/95.0.4638.69 Safari/537.36" etag="dTCq0KVBldLMNywpeagc" version="15.8.3" type="github">
  <diagram id="vzwjzMwXMz-cukmAMoQm" name="Page-1">
    <mxGraphModel dx="778" dy="500" grid="0" gridSize="10" guides="1" tooltips="1" connect="1" arrows="1" fold="1" page="1" pageScale="1" pageWidth="827" pageHeight="1169" math="0" shadow="0">
      <root>
        <mxCell id="0" />
        <mxCell id="1" parent="0" />
        <mxCell id="jOyEAlP7gIvxIbsAM8-H-2" value="" style="sketch=0;aspect=fixed;pointerEvents=1;shadow=0;dashed=0;html=1;strokeColor=none;labelPosition=center;verticalLabelPosition=bottom;verticalAlign=top;align=center;fillColor=#ffcccc;shape=mxgraph.azure.user" vertex="1" parent="1">
          <mxGeometry x="91" y="94" width="123.14" height="131" as="geometry" />
        </mxCell>
        <mxCell id="jOyEAlP7gIvxIbsAM8-H-3" value="" style="sketch=0;aspect=fixed;pointerEvents=1;shadow=0;dashed=0;html=1;strokeColor=none;labelPosition=center;verticalLabelPosition=bottom;verticalAlign=top;align=center;fillColor=#6496ed;shape=mxgraph.azure.cloud" vertex="1" parent="1">
          <mxGeometry x="363" y="10" width="631.27" height="404" as="geometry" />
        </mxCell>
        <mxCell id="jOyEAlP7gIvxIbsAM8-H-9" value="" style="sketch=0;aspect=fixed;pointerEvents=1;shadow=0;dashed=0;html=1;strokeColor=none;labelPosition=center;verticalLabelPosition=bottom;verticalAlign=top;align=center;fillColor=#fff2cc;shape=mxgraph.azure.user" vertex="1" parent="1">
          <mxGeometry x="288" y="129" width="123.14" height="131" as="geometry" />
        </mxCell>
        <mxCell id="jOyEAlP7gIvxIbsAM8-H-12" value="" style="shape=doubleArrow;direction=south;whiteSpace=wrap;html=1;fontFamily=Comic Sans MS;fontSize=28;fillColor=#ffff88;arrowWidth=0.43139166477042756;arrowSize=0.2146599334420506;strokeColor=none;" vertex="1" parent="1">
          <mxGeometry x="148" y="298" width="60" height="141" as="geometry" />
        </mxCell>
        <mxCell id="jOyEAlP7gIvxIbsAM8-H-13" value="" style="sketch=0;aspect=fixed;pointerEvents=1;shadow=0;dashed=0;html=1;strokeColor=none;labelPosition=center;verticalLabelPosition=bottom;verticalAlign=top;align=center;fillColor=#00188D;shape=mxgraph.azure.server_rack;fontFamily=Comic Sans MS;fontSize=28;fontColor=#FFFFFF;" vertex="1" parent="1">
          <mxGeometry x="249" y="335" width="50" height="50" as="geometry" />
        </mxCell>
        <mxCell id="jOyEAlP7gIvxIbsAM8-H-14" value="" style="sketch=0;aspect=fixed;pointerEvents=1;shadow=0;dashed=0;html=1;strokeColor=none;labelPosition=center;verticalLabelPosition=bottom;verticalAlign=top;align=center;fillColor=#6496ED;shape=mxgraph.mscae.enterprise.web_server;fontFamily=Comic Sans MS;fontSize=28;fontColor=#FFFFFF;" vertex="1" parent="1">
          <mxGeometry x="195" y="494" width="437" height="575" as="geometry" />
        </mxCell>
      </root>
    </mxGraphModel>
  </diagram>
</mxfile>
